# xmcd CD database file
#
# Track frame offsets:
#	150
#	20662
#	41812
#
# Disc length: 772 seconds
#
# Revision: 0
# Processed by: cddbd v1.5.1PL2 Copyright (c) Steve Scherf et al.
# Submitted via: CDex 1.51
#
DISCID=21030203
DTITLE=SNoW - 逆さまの蝶
DYEAR=2006
DGENRE=J-POP
TTITLE0=逆さまの蝶
TTITLE1=night light
TTITLE2=Bleach (English version)
EXTD=YEAR: 2006
EXTT0=
EXTT1=
EXTT2=
PLAYORDER=
